# xmcd
#
# Track frame offsets: 
#        150
#        21372
#        38882
#        58900
#        71347
#        89732
#        101015
#        120185
#        138802
#        153185
#        173910
#        185515
#        204577
#        230902
#        247372
#        263205
#        276267
#        294427
#        313510
#        333592
#
# Disc length: 4684 seconds
#
# Revision: 2
# Processed by: cddbd v1.5.2PL0 Copyright (c) Steve Scherf et al.
# Submitted via: ExactAudioCopy v0.99pb4
#
DISCID=30124a14
DTITLE=Various Artist - Blues Behind the Wall
DYEAR=1966
DGENRE=Blues
TTITLE0=Roosevelt Sykes - Running the Boogie
TTITLE1=Otis Rush - All Your Love
TTITLE2=Little Brother Montgomery - I Keep Drinking
TTITLE3=Sleepy John Estes and Yank Rachell - You Shouldn't Do It
TTITLE4=Big Joe Turner - Roll'em Pete
TTITLE5=Junior Wells  - Sheckin' on My Baby
TTITLE6=Junior Wells - Vietnam Blues
TTITLE7=Sippie Wallace - Suitcase Blues
TTITLE8=Robert Pete Williams - Midnight Boogie
TTITLE9=Big Joe Turner - Flip, Flop and Fly
TTITLE10=Otis Rush - It Takes Time
TTITLE11=Roosevelt Sykes - Night Time Is the Right Time
TTITLE12=Otis Rush - My Own Fault
TTITLE13=Clarence - Pinetop's Boogie Woogie
TTITLE14=Sleepy John Estes and Yank Rachell - Yellow Jam Blues
TTITLE15=Junior Wells - Over Yonder Walls
TTITLE16=Sippie Wallace - Women Keep Your Mouth Shut
TTITLE17=Junior Wells - Tribute to Sonny Boy Williamson, A
TTITLE18=Robert Pete Williams - Louise
TTITLE19=Big Joe Turner - Feeling Happy
EXTD=
EXTT0=
EXTT1=
EXTT2=
EXTT3=
EXTT4=
EXTT5=
EXTT6=
EXTT7=
EXTT8=
EXTT9=
EXTT10=
EXTT11=
EXTT12=
EXTT13=
EXTT14=
EXTT15=
EXTT16=
EXTT17=
EXTT18=
EXTT19=
PLAYORDER=
